<?xml version="1.0" encoding="UTF-8"?>
<svg id="Layer_2" data-name="Layer 2" xmlns="http://www.w3.org/2000/svg" viewBox="0 0 284.89 320.61">
  <defs>
    <style>
      .cls-1 {
        stroke-linecap: round;
      }

      .cls-1, .cls-2, .cls-3 {
        stroke: #000;
        stroke-miterlimit: 10;
        stroke-width: 9px;
      }

      .cls-1, .cls-3 {
        fill: none;
      }

      .cls-4 {
        opacity: .15;
      }
    </style>
  </defs>
  <g id="_3" data-name="3">
    <path class="cls-4" d="M77.69,46.65v64.53c0,3.03,1.62,5.83,4.24,7.34l55.89,32.27c2.62,1.51,5.86,1.51,8.48,0l55.89-32.27c2.62-1.51,4.24-4.31,4.24-7.34V46.65c0-3.03-1.62-5.83-4.24-7.34L146.3,7.04c-2.62-1.51-5.86-1.51-8.48,0l-55.89,32.27c-2.62,1.51-4.24,4.31-4.24,7.34Z"/>
    <path class="cls-4" d="M4.81,174.08v64.53c0,3.03,1.62,5.83,4.24,7.34l55.89,32.27c2.62,1.51,5.86,1.51,8.48,0l55.89-32.27c2.62-1.51,4.24-4.31,4.24-7.34v-64.53c0-3.03-1.62-5.83-4.24-7.34l-55.89-32.27c-2.62-1.51-5.86-1.51-8.48,0l-55.89,32.27c-2.62,1.51-4.24,4.31-4.24,7.34Z"/>
    <path class="cls-4" d="M151.96,174.08v64.53c0,3.03,1.62,5.83,4.24,7.34l55.89,32.27c2.62,1.51,5.86,1.51,8.48,0l55.89-32.27c2.62-1.51,4.24-4.31,4.24-7.34v-64.53c0-3.03-1.62-5.83-4.24-7.34l-55.89-32.27c-2.62-1.51-5.86-1.51-8.48,0l-55.89,32.27c-2.62,1.51-4.24,4.31-4.24,7.34Z"/>
    <path class="cls-3" d="M77.38,45.25v64.53c0,3.03,1.62,5.83,4.24,7.34l55.89,32.27c2.62,1.51,5.86,1.51,8.48,0l55.89-32.27c2.62-1.51,4.24-4.31,4.24-7.34V45.25c0-3.03-1.62-5.83-4.24-7.34L145.99,5.64c-2.62-1.51-5.86-1.51-8.48,0l-55.89,32.27c-2.62,1.51-4.24,4.31-4.24,7.34Z"/>
    <path class="cls-3" d="M4.5,172.68v64.53c0,3.03,1.62,5.83,4.24,7.34l55.89,32.27c2.62,1.51,5.86,1.51,8.48,0l55.89-32.27c2.62-1.51,4.24-4.31,4.24-7.34v-64.53c0-3.03-1.62-5.83-4.24-7.34l-55.89-32.27c-2.62-1.51-5.86-1.51-8.48,0l-55.89,32.27c-2.62,1.51-4.24,4.31-4.24,7.34Z"/>
    <path class="cls-3" d="M151.65,172.68v64.53c0,3.03,1.62,5.83,4.24,7.34l55.89,32.27c2.62,1.51,5.86,1.51,8.48,0l55.89-32.27c2.62-1.51,4.24-4.31,4.24-7.34v-64.53c0-3.03-1.62-5.83-4.24-7.34l-55.89-32.27c-2.62-1.51-5.86-1.51-8.48,0l-55.89,32.27c-2.62,1.51-4.24,4.31-4.24,7.34Z"/>
    <path class="cls-2" d="M186.36,291.3l-42.34,24.47c-.78.45-1.75.45-2.53,0l-42.34-24.47c-1.68-.97-1.68-3.4,0-4.37l42.34-24.47c.78-.45,1.75-.45,2.53,0l42.34,24.47c1.68.97,1.68,3.4,0,4.37Z"/>
    <path class="cls-2" d="M6.78,135l.08-48.91c0-.9.48-1.74,1.27-2.19l42.42-24.35c1.68-.97,3.79.25,3.78,2.19l-.08,48.91c0,.9-.48,1.74-1.27,2.19l-42.42,24.35c-1.68.97-3.79-.25-3.78-2.19Z"/>
    <path class="cls-2" d="M272.96,137.05l-42.41-24.36c-.78-.45-1.27-1.28-1.27-2.19l-.06-48.91c0-1.94,2.1-3.16,3.78-2.19l42.41,24.36c.78.45,1.27,1.28,1.27,2.19l.06,48.91c0,1.94-2.1,3.16-3.78,2.19Z"/>
    <line class="cls-1" x1="19.91" y1="179.44" x2="19.91" y2="231.88"/>
    <line class="cls-1" x1="213.89" y1="148.9" x2="169.25" y2="174.99"/>
    <line class="cls-1" x1="190.64" y1="47.99" x2="145.86" y2="22.14"/>
  </g>
</svg>